<svg width="219" height="94" viewBox="0 0 219 94" fill="none" xmlns="http://www.w3.org/2000/svg">
<g id="Group">
<path id="Vector" d="M56.6533 59.2362C59.8307 58.9782 63.071 58.8874 66.2105 59.0685C66.2105 59.0685 71.755 52.2908 72.2809 50.2849C72.2809 50.2849 55.3826 51.881 46.7777 54.7858C46.7777 54.7858 36.379 60.0872 32.0229 64.0984C32.0229 64.0984 39.0866 61.8133 48.2277 60.2946C47.0803 61.1244 45.8195 62.0899 44.7856 63.0157C39.7675 63.7526 34.4973 64.9153 29.9646 66.74C29.9646 66.74 16.1837 78.4841 8.37915 94C8.37915 94 17.3531 72.6131 53.7909 73.978C53.7909 73.978 61.8823 63.1674 63.9883 61.7684C63.9883 61.7684 59.5372 61.6513 53.4001 62.0904C54.2544 61.2524 55.4046 60.1883 56.6503 59.2362H56.6533Z" fill="#2162EB"/>
<path id="Vector_2" d="M9.89819 26.5204C9.81943 26.9619 9.77528 27.4088 9.76898 27.8557C9.33714 27.7439 8.85803 27.6349 8.44508 27.7918C8.33165 27.8344 8.22763 27.8956 8.12362 27.9594C7.11176 28.5686 6.04004 29.2708 5.73117 30.287C5.7154 29.8826 5.7028 29.4756 5.68702 29.0713C5.67761 28.7707 5.66495 28.4701 5.58619 28.1775C5.52626 27.9568 5.42542 27.7439 5.38127 27.5205C5.28044 27.0045 5.48217 26.4831 5.74065 26.0069C5.99907 25.5308 6.308 25.0706 6.44669 24.5626C6.50656 24.3418 6.53493 24.1104 6.66102 23.9109C6.84068 23.6289 7.2946 23.4188 7.62873 23.7885C7.70119 23.8231 7.76112 23.8736 7.83358 23.9056C7.96285 23.9641 8.11732 23.9614 8.26542 23.9588C10.9132 23.9109 13.5704 24.1609 16.1425 24.7036C15.6318 25.2089 14.8155 25.3978 14.0463 25.5335C12.713 25.7702 11.3608 25.9325 10.0022 26.0229C9.96124 26.1879 9.92657 26.3554 9.89819 26.5204Z" fill="#2162EB"/>
<path id="Vector_3" d="M6.84723 39.594C6.84723 39.594 13.1703 46.1297 12.8141 48.5317C12.4579 50.9338 9.29642 59.0682 9.29642 59.0682C9.29642 59.0682 14.7873 48.9971 14.5919 47.4304C14.3965 45.8637 6.84723 39.594 6.84723 39.594Z" fill="#2162EB"/>
<path id="Vector_4" d="M14.4427 38.7405C14.4427 38.7405 16.9423 39.6396 16.9171 40.3711C16.8919 41.1026 16.3434 45.5156 15.5963 46.38C15.5963 46.38 18.7705 42.5949 19.0731 39.4002C19.0731 39.4002 18.5435 39.6103 14.4427 38.7405Z" fill="#2162EB"/>
<path id="Vector_5" d="M22.8214 33.069C22.7772 32.6833 22.7709 32.2816 22.938 31.9199C23.1019 31.5581 23.6945 31.3613 23.9656 31.2575C22.3675 31.4943 21.6803 31.332 21.0688 30.9756C20.8577 30.8532 20.5866 30.8053 20.4006 30.6564C20.0066 30.3345 19.9404 29.8318 19.7544 29.3982C19.7229 29.3237 19.6787 29.2412 19.5905 29.2093C19.5212 29.1854 19.4423 29.196 19.3699 29.2093C18.3927 29.4168 17.6678 30.0845 16.9144 30.6484C14.4653 32.4838 11.124 33.4441 7.85846 33.2526C7.27533 33.218 6.62916 33.1169 6.28874 32.7179C6.14057 32.5423 6.05551 32.3162 5.7308 32.2816C5.51017 32.2577 5.29272 32.3428 5.14455 32.4838C4.88925 32.7285 4.8514 33.069 4.82303 33.3855C4.83562 33.2366 4.58032 32.9068 4.52675 32.7471C4.44163 32.4944 4.39118 32.2338 4.35651 31.9704C4.30294 31.5395 4.30294 31.0926 4.34073 30.667C4.11699 31.231 3.91207 31.8002 3.69774 32.3641C3.5969 32.6328 3.49289 32.9094 3.5086 33.1914C3.52438 33.4786 3.65677 33.7527 3.79228 34.016C4.53935 35.4843 5.35889 36.9287 6.24147 38.3412C6.02714 36.8143 5.85689 35.1305 6.90654 33.875C8.42587 34.4682 10.2257 34.5214 11.7891 34.0239C12.1642 35.4231 11.8742 36.942 10.9948 38.1683C12.9365 37.0058 14.3486 35.2289 14.8813 33.2738C15.6189 33.0823 16.3596 32.8988 17.1003 32.7259C17.3493 32.6674 17.6015 32.6115 17.86 32.6301C18.191 32.6567 18.4873 32.811 18.7678 32.9626C19.3383 33.2685 19.912 33.5744 20.4195 33.9495C21.1697 34.5054 21.7622 35.1997 22.2981 35.9125C22.2981 35.9125 22.3013 35.9126 22.3044 35.9099H22.2981C22.2981 35.9099 27.1712 42.2407 27.3383 48.5875C27.3383 48.5875 30.3548 52.3886 29.7181 55.1154C29.7181 55.1154 31.5463 51.708 34.5187 50.7048C34.5187 50.7048 35.7921 48.0157 29.8851 43.6399C24.533 39.6765 22.9222 33.6436 22.8056 33.0185" fill="#2162EB"/>
<path id="Vector_6" d="M7.36025 60.6167C8.78187 63.298 10.8622 65.7982 13.8094 67.3438C14.0174 67.4527 14.2286 67.5564 14.4209 67.6844C12.8133 67.5327 11.1459 67.3624 9.78419 66.6255C9.16957 66.2931 9.11282 66.9712 8.54859 66.5857C6.31379 63.8301 5.25785 59.0603 6.34846 55.8525C6.29483 56.6772 6.24126 57.5121 6.4178 58.3265C6.5502 58.9405 6.8118 59.5283 7.09547 60.1058C7.18059 60.2761 7.26883 60.4489 7.35713 60.6192L7.36025 60.6167Z" fill="#2162EB"/>
<path id="Vector_7" d="M14.5413 57.7566C13.9266 61.0686 14.4184 64.524 15.9534 67.6146C16.07 67.8489 16.3727 67.902 16.6563 67.9789C16.8265 68.0243 17.0062 68.0455 17.1859 68.0615C17.7627 68.1146 18.3427 68.1229 18.9227 68.0857C18.2859 67.1599 17.665 66.2264 17.085 65.2712C15.5499 62.739 14.308 59.9353 14.6768 57.1074C14.6264 57.3231 14.5822 57.5383 14.5413 57.7566Z" fill="#2162EB"/>
<path id="Vector_8" d="M29.2538 57.2168C28.7275 58.6478 27.7251 59.8745 26.6376 61.0578C25.6731 62.1084 24.6739 63.1328 23.6368 64.1303C22.6565 65.0746 21.6353 66.003 20.4312 66.7368C24.3461 63.2071 27.0537 58.733 28.1475 53.9849C28.4248 54.9504 28.5825 55.9639 28.6045 56.9562C28.6108 57.1983 28.6045 57.4429 28.5288 57.6772C28.8661 57.3763 29.1372 57.0202 29.3169 56.6342C29.3516 56.7834 29.3106 57.0708 29.257 57.2168H29.2538Z" fill="#2162EB"/>
<path id="Vector_9" d="M16.0262 22.4292C17.2586 22.5436 18.4438 22.9 19.5533 23.3655C20.6629 23.831 21.6999 24.4083 22.7306 24.9882C20.2152 24.0385 17.6274 23.2192 14.6865 23.3576C14.2704 23.3762 13.8543 23.2777 13.4478 23.1926C14.2799 22.8841 15.131 22.5702 16.0262 22.4292Z" fill="#2162EB"/>
<path id="Vector_10" d="M21.5453 22.4023C22.3018 22.538 23.011 22.8226 23.6635 23.1684C24.316 23.5142 24.918 23.9292 25.5169 24.3415C24.026 23.6206 22.4814 22.9742 20.6438 22.9077C20.3822 22.8971 20.1332 22.8146 19.8873 22.7401C20.4263 22.5912 20.9779 22.4422 21.5453 22.4023Z" fill="#2162EB"/>
<path id="Vector_11" d="M41.2475 23.0676C41.0111 23.3496 40.7747 23.6289 40.5383 23.9108C40.1916 24.3232 39.8449 24.7355 39.4319 25.1025C38.8583 25.616 38.1616 26.0309 37.3988 26.3182C37.0143 26.4645 36.6076 26.5789 36.2609 26.781C35.9142 26.9832 35.6274 27.3051 35.6305 27.6615C35.6305 27.9275 35.7944 28.1802 35.807 28.4462C35.5391 28.0605 35.0348 27.6322 34.1743 27.4221C33.4241 27.2412 32.6959 27.0071 31.9426 26.8369C31.0159 26.6294 29.8181 26.5709 28.8788 26.4086C28.0624 26.2677 27.2397 26.1586 26.4138 26.0841C28.3997 26.3394 30.3949 26.273 32.3807 26.015C33.1719 25.9112 33.9599 25.7676 34.7164 25.5361C35.476 25.3047 36.1979 24.9855 36.9134 24.6716C38.3003 24.0598 39.8637 23.6794 41.2506 23.0676H41.2475Z" fill="#2162EB"/>
<path id="Vector_12" d="M24.4426 22.6952C24.4426 22.6952 26.8508 23.2086 27.2039 23.5889C27.2039 23.5889 38.1195 19.0536 41.7444 18.4418C41.9051 18.4152 44.6664 18.0082 47.0714 19.309C49.4796 20.6097 53.9712 23.2086 53.9712 23.2086C53.9712 23.2086 56.7639 24.4535 55.0621 27.5683C55.0621 27.5683 56.8269 24.6982 57.1803 24.4535C57.1803 24.4535 56.537 23.7087 56.1524 23.0649C55.7678 22.4212 51.2732 21.852 45.3692 17.4922C45.3692 17.4922 44.3416 16.9788 40.556 18.0349C36.7672 19.0908 28.7452 23.3709 24.4458 22.6925L24.4426 22.6952Z" fill="#2162EB"/>
<path id="Vector_13" d="M26.8622 34.0774C26.6195 33.9524 26.3736 33.8354 26.1246 33.7236C26.3673 33.846 26.6163 33.9631 26.8622 34.0774Z" fill="#2162EB"/>
<path id="Vector_14" d="M51.5655 36.514C52.5084 35.9633 53.5107 35.3569 54.5257 34.7105C54.5257 34.7105 54.2542 40.794 51.2817 43.7785C48.3096 46.7657 40.5776 53.2532 40.5776 53.2532C40.5776 53.2532 51.9819 44.518 53.9485 43.7971C53.9485 43.7971 55.9848 34.5642 57.2616 32.6277C53.8164 34.6732 48.7761 37.3545 44.6879 37.4503C38.5634 37.5939 32.2309 36.5672 26.8629 34.0747C29.5107 35.4287 31.6288 37.5115 32.8046 39.9294C36.2529 39.3496 39.8589 39.7034 43.3672 39.9002C43.7927 39.9241 44.5145 40.0039 44.6816 39.964C44.9148 39.9055 45.7501 39.5544 46.2765 39.3229C47.2947 38.8761 49.2615 37.8573 51.5655 36.5113V36.514Z" fill="#2162EB"/>
<path id="Vector_15" d="M25.0122 16.1199C25.0122 16.1199 23.6725 16.378 22.8278 16.6041C22.8278 16.6041 10.5725 12.7896 0.000500915 13.7605C-0.112994 13.7712 19.0926 15.0134 24.2494 20.7883C25.6268 20.4239 27.0674 19.9397 28.5015 19.4131C27.9342 18.6124 26.3865 16.5855 25.0122 16.1199Z" fill="#2162EB"/>
<path id="Vector_16" d="M23.9846 7.82872C23.9846 7.82872 17.7341 6.56787 14.727 5.45068C14.727 5.45068 27.5937 10.7973 32.0949 18.4475C32.8923 18.1336 33.6741 17.8171 34.4243 17.5165C33.4818 16.0216 29.6615 10.4009 23.9815 7.82872H23.9846Z" fill="#2162EB"/>
<path id="Vector_17" d="M51.6165 14.4146C53.2175 16.1304 54.2515 18.2132 54.5921 20.3757C57.0002 21.3599 58.5479 21.7324 58.784 22.1287C58.8506 22.2404 58.9258 22.3548 59.0017 22.4692C59.6982 19.756 60.032 16.8885 59.5752 14.1912C59.4364 13.3719 59.2475 12.5579 58.9637 11.7679C58.9637 11.7679 57.501 8.38971 56.5618 7.22727C56.5618 7.22727 58.2391 14.2497 57.3029 16.5639C57.2583 16.673 57.2393 16.3378 57.2051 16.2261C55.4745 10.6268 48.9843 5.32802 44.7952 2.38606C42.6613 0.885763 41.123 0 41.123 0C42.6487 0.989539 43.7771 2.35943 44.688 3.78789C47.1026 7.57044 47.7644 12.1456 47.2822 16.4389C49.4383 17.9073 51.405 18.9527 53.0823 19.7187C52.5998 17.9791 52.5937 15.9761 51.6165 14.412V14.4146Z" fill="#2162EB"/>
<path id="Vector_18" d="M50.8743 51.8863C50.8743 51.8863 58.8746 49.9207 62.7577 49.8541C62.7577 49.8541 66.4866 46.2498 66.7202 45.1353C66.7202 45.1353 69.3613 48.0851 68.8164 48.5109C68.271 48.9366 65.6323 49.7236 65.6323 49.7236C65.6323 49.7236 70.9157 48.7395 72.7783 48.8061C72.7783 48.8061 76.8632 37.3893 67.4008 36.8653C67.1739 36.852 66.9593 36.9584 66.8553 37.1287L64.6998 40.7436L64.7408 39.5972C64.816 37.5809 64.4411 35.5725 63.637 33.6733L62.203 30.2844C62.203 30.2844 61.9792 43.9516 50.8713 51.8837L50.8743 51.8863Z" fill="#2162EB"/>
<path id="Vector_19" d="M63.1809 27.9192C63.1809 27.9192 65.674 30.3903 66.8028 31.7097C67.2407 32.2258 67.843 32.6194 68.5334 32.8403C70.2193 33.3802 73.1166 34.3059 73.2169 34.2846C75.2379 33.8777 79.8841 32.8456 79.9312 31.7816C79.9972 30.3239 76.5331 26.0466 76.5331 26.0466L69.5956 24.5623C69.5956 24.5623 63.3986 25.3097 63.4298 25.2352C63.4616 25.1608 73.4664 25.5625 75.1743 27.3952L76.7067 29.8849L72.9931 31.0022L68.032 30.3664L63.184 27.9139L63.1809 27.9192Z" fill="#2162EB"/>
<path id="Vector_20" d="M43.4896 10.7277C39.5369 7.95858 32.5772 2.16769 30.8814 2.04002C30.1879 1.98682 29.6268 2.5667 29.3999 3.12268C28.9838 4.14146 28.8987 5.25333 29.4283 6.23221C29.9105 7.12863 30.522 7.96921 31.0673 8.83905C32.4858 11.0947 34.3959 13.401 35.827 15.6513C35.9467 15.8402 36.0728 16.0317 36.2619 16.1727C36.4668 16.327 36.7316 16.4121 36.9869 16.4892C37.5133 16.6489 37.6142 16.6887 38.0775 16.8058C38.5913 16.6249 39.0704 16.468 39.4991 16.3483C41.8789 15.6833 43.3415 15.5423 44.1925 15.5556C44.3848 15.3082 44.5015 14.9864 44.6402 14.7177C45.362 13.3265 44.8703 11.6959 43.4833 10.725L43.4896 10.7277ZM41.6993 13.2706C41.6299 13.4063 41.57 13.5685 41.4723 13.6936C41.1508 13.6883 40.6527 13.7282 39.9183 13.8878C39.6725 13.941 39.4014 14.0101 39.102 14.0926C38.8845 14.1538 38.6449 14.2309 38.3833 14.324C38.1501 14.2655 38.0996 14.2442 37.8316 14.1644C37.7024 14.1245 37.57 14.082 37.466 14.0048C37.3715 13.933 37.3053 13.8372 37.2454 13.7415C36.5236 12.6057 35.559 11.4405 34.8435 10.302C34.5661 9.86314 34.2603 9.43756 34.0145 8.98535C33.7466 8.49057 33.7907 7.92932 34.0019 7.41591C34.1154 7.13399 34.399 6.84403 34.7489 6.8706C35.6063 6.93449 39.1177 9.85783 41.113 11.257C41.8128 11.7464 42.0618 12.571 41.6961 13.2733L41.6993 13.2706Z" fill="#2162EB"/>
<path id="Vector_21" d="M96.1064 40.4428V26.2144H100.248V31.6833H107.186V26.2144H111.328V40.4428H107.186V34.8727H100.248V40.4428H96.1064Z" fill="#2162EB"/>
<path id="Vector_22" d="M112.558 40.4428L119.47 26.2144H124.214L131.032 40.4428H126.553L125.012 37.006H118.436L116.869 40.4428H112.558ZM119.687 34.2237H123.782L121.758 29.6697L119.687 34.2237Z" fill="#2162EB"/>
<path id="Vector_23" d="M132.262 40.4428V26.2144H136.164L143.823 34.4684V26.2144H147.726V40.4428H144.063L136.161 31.8642V40.4428H132.259H132.262Z" fill="#2162EB"/>
<path id="Vector_24" d="M156.734 40.6476C155.369 40.6476 154.02 40.4375 152.687 40.0172C151.354 39.5969 150.165 39.0143 149.122 38.2695L151.436 35.7293C152.463 36.4341 153.412 36.9395 154.278 37.2428C155.145 37.5487 156.069 37.7003 157.049 37.7003C157.692 37.7003 158.237 37.6471 158.688 37.538C159.139 37.429 159.482 37.2694 159.725 37.0593C159.965 36.8491 160.088 36.6017 160.088 36.3171C160.088 35.9234 159.911 35.6202 159.558 35.402C159.205 35.1866 158.603 35.0163 157.752 34.894L154.042 34.346C152.677 34.1439 151.624 33.7023 150.887 33.024C150.149 32.3457 149.78 31.4865 149.78 30.4411C149.78 29.5207 150.058 28.728 150.612 28.0631C151.167 27.398 151.961 26.89 152.999 26.5389C154.036 26.1878 155.268 26.0095 156.696 26.0095C157.947 26.0095 159.208 26.1904 160.478 26.5468C161.745 26.9059 162.846 27.4034 163.779 28.0418L161.588 30.6247C159.855 29.4995 158.127 28.9382 156.409 28.9382C155.848 28.9382 155.363 28.9887 154.953 29.0898C154.543 29.1909 154.231 29.3345 154.014 29.5154C153.796 29.699 153.689 29.9197 153.689 30.1751C153.689 30.5289 153.847 30.7976 154.159 30.9891C154.471 31.178 154.982 31.3269 155.687 31.436L159.18 31.9228C160.8 32.1409 162.036 32.5931 162.877 33.2847C163.719 33.9763 164.141 34.87 164.141 35.9686C164.141 36.9316 163.845 37.7615 163.249 38.4584C162.657 39.1553 161.805 39.6953 160.696 40.0757C159.59 40.4561 158.272 40.6449 156.746 40.6449L156.734 40.6476Z" fill="#2162EB"/>
<path id="Vector_25" d="M173.449 40.6476C171.891 40.6476 170.536 40.3869 169.388 39.8656C168.241 39.3442 167.353 38.602 166.728 37.6391C166.101 36.6762 165.789 35.5457 165.789 34.2449V26.2144H169.931V34.2449C169.931 34.8834 170.076 35.4419 170.366 35.9208C170.656 36.4022 171.069 36.7719 171.608 37.03C172.147 37.288 172.768 37.4157 173.474 37.4157C174.18 37.4157 174.82 37.288 175.34 37.03C175.863 36.7719 176.267 36.4022 176.556 35.9208C176.846 35.4393 176.991 34.8807 176.991 34.2449V26.2144H181.134V34.2449C181.134 35.5324 180.815 36.6576 180.181 37.6205C179.548 38.5835 178.656 39.3282 177.509 39.8576C176.361 40.3869 175.006 40.6503 173.449 40.6503V40.6476Z" fill="#2162EB"/>
<path id="Vector_26" d="M183.688 40.4428V26.2144H187.59L195.249 34.4684V26.2144H199.152V40.4428H195.489L187.587 31.8642V40.4428H183.685H183.688Z" fill="#2162EB"/>
<path id="Vector_27" d="M210.376 40.6663C209.109 40.6663 207.927 40.4801 206.836 40.1078C205.745 39.7353 204.784 39.214 203.959 38.5436C203.133 37.8733 202.49 37.094 202.032 36.2055C201.576 35.3171 201.345 34.3594 201.345 33.33C201.345 32.3006 201.576 31.3403 202.032 30.4545C202.49 29.5661 203.123 28.7867 203.937 28.1163C204.746 27.4461 205.698 26.9247 206.792 26.5523C207.883 26.1799 209.056 25.9937 210.31 25.9937C211.738 25.9937 213.087 26.241 214.357 26.7358C215.624 27.2306 216.661 27.9115 217.465 28.7787L214.549 30.9945C214.004 30.3987 213.374 29.9518 212.658 29.6538C211.942 29.3559 211.161 29.207 210.31 29.207C209.635 29.207 209.015 29.3134 208.444 29.5209C207.873 29.731 207.375 30.0183 206.949 30.3854C206.525 30.7524 206.193 31.186 205.963 31.6861C205.73 32.1889 205.613 32.7368 205.613 33.3327C205.613 33.9285 205.733 34.4818 205.976 34.9898C206.215 35.4979 206.559 35.9395 207 36.3119C207.442 36.6843 207.955 36.9769 208.541 37.187C209.128 37.3972 209.764 37.5009 210.458 37.5009C211.152 37.5009 211.716 37.4051 212.252 37.2163C212.791 37.0274 213.251 36.7614 213.635 36.4236C214.02 36.0858 214.294 35.6974 214.455 35.2639H209.903V32.2341H218.937V33.2502C218.937 34.3195 218.723 35.3064 218.297 36.2082C217.872 37.1099 217.276 37.8946 216.516 38.5649C215.753 39.2352 214.849 39.754 213.806 40.121C212.762 40.4881 211.621 40.669 210.386 40.669L210.376 40.6663Z" fill="#2162EB"/>
<path id="Vector_28" d="M96.1064 64.8377V50.6094H100.249V61.7497H109.137V64.8403H96.1064V64.8377Z" fill="#2162EB"/>
<path id="Vector_29" d="M111.448 64.8377V50.6094H115.59V64.8377H111.448Z" fill="#2162EB"/>
<path id="Vector_30" d="M118.385 64.8377V50.6094H122.528V56.8287L129.345 50.6094H134.357L126.553 57.2968L134.792 64.8377H129.301L122.534 58.3129V64.8377H118.392H118.385Z" fill="#2162EB"/>
<path id="Vector_31" d="M135.225 64.8377V50.6094H148.52V53.6391H139.366V56.2007H145.412V59.1267H139.366V61.8106H148.618V64.8403H135.225V64.8377Z" fill="#2162EB"/>
<path id="Vector_32" d="M151.051 64.8377V50.6094H155.193V61.7497H164.082V64.8403H151.051V64.8377Z" fill="#2162EB"/>
<path id="Vector_33" d="M166.395 64.8377V50.6094H170.537V64.8377H166.395Z" fill="#2162EB"/>
<path id="Vector_34" d="M181.738 65.0613C180.47 65.0613 179.288 64.875 178.198 64.5025C177.107 64.1304 176.149 63.6087 175.332 62.9383C174.513 62.2685 173.876 61.4888 173.416 60.6007C172.959 59.712 172.729 58.7543 172.729 57.7247C172.729 56.6958 172.959 55.7354 173.416 54.8494C173.873 53.9612 174.513 53.1815 175.332 52.5112C176.152 51.8408 177.107 51.3196 178.198 50.947C179.288 50.575 180.47 50.3887 181.738 50.3887C183.005 50.3887 184.187 50.575 185.277 50.947C186.368 51.3196 187.326 51.8408 188.143 52.5112C188.959 53.1815 189.599 53.9612 190.059 54.8494C190.516 55.738 190.746 56.6958 190.746 57.7247C190.746 58.7543 190.516 59.7146 190.059 60.6007C189.602 61.4888 188.962 62.2685 188.143 62.9383C187.323 63.6087 186.368 64.1304 185.277 64.5025C184.184 64.875 183.005 65.0613 181.738 65.0613ZM181.738 61.8479C182.412 61.8479 183.039 61.7442 183.616 61.5342C184.193 61.3241 184.697 61.0367 185.123 60.6698C185.549 60.3024 185.883 59.8663 186.122 59.358C186.361 58.8502 186.484 58.3048 186.484 57.7222C186.484 57.1396 186.365 56.5786 186.122 56.076C185.883 55.5754 185.549 55.1394 185.123 54.775C184.697 54.4081 184.196 54.1207 183.616 53.9107C183.039 53.7001 182.412 53.5964 181.738 53.5964C181.063 53.5964 180.436 53.7001 179.859 53.9107C179.282 54.1207 178.777 54.4081 178.352 54.775C177.927 55.1419 177.592 55.5754 177.353 56.076C177.114 56.576 176.991 57.1267 176.991 57.7222C176.991 58.3182 177.111 58.8502 177.353 59.358C177.592 59.8663 177.927 60.3024 178.352 60.6698C178.777 61.0367 179.279 61.3241 179.859 61.5342C180.436 61.7442 181.063 61.8479 181.738 61.8479Z" fill="#2162EB"/>
<path id="Vector_35" d="M192.94 64.8377V50.6094H196.843L204.502 58.8635V50.6094H208.405V64.8377H204.742L196.839 56.2595V64.8377H192.937H192.94Z" fill="#2162EB"/>
</g>
</svg>
